<svg xmlns="http://www.w3.org/2000/svg" xmlns:xlink="http://www.w3.org/1999/xlink" width="500" zoomAndPan="magnify" viewBox="0 0 375 374.999991" height="500" preserveAspectRatio="xMidYMid meet" version="1.0"><defs><g/><clipPath id="id1"><path d="M 194 125.625 L 225 125.625 L 225 187.875 L 194 187.875 Z M 194 125.625 " clip-rule="nonzero"/></clipPath><clipPath id="id2"><path d="M 150 125.625 L 181 125.625 L 181 187.875 L 150 187.875 Z M 150 125.625 " clip-rule="nonzero"/></clipPath></defs><g clip-path="url(#id1)"><path fill="rgb(16.079712%, 67.449951%, 100%)" d="M 194.015625 125.617188 L 194.015625 138.347656 L 212.296875 156.742188 L 194.015625 175.132812 L 194.015625 187.863281 L 224.953125 156.742188 Z M 194.015625 125.617188 " fill-opacity="1" fill-rule="nonzero"/></g><g clip-path="url(#id2)"><path fill="rgb(16.079712%, 67.449951%, 100%)" d="M 181 138.347656 L 181 125.617188 L 150.0625 156.742188 L 181 187.863281 L 181 175.132812 L 162.71875 156.742188 Z M 181 138.347656 " fill-opacity="1" fill-rule="nonzero"/></g><path fill="rgb(16.079712%, 67.449951%, 100%)" d="M 172.398438 156.742188 L 187.507812 141.542969 L 202.617188 156.742188 L 187.507812 171.941406 Z M 172.398438 156.742188 " fill-opacity="1" fill-rule="nonzero"/><g fill="rgb(100%, 100%, 100%)" fill-opacity="1"><g transform="translate(57.612141, 227.823587)"><g><path d="M 13.515625 0 L 6.625 0 L -0.0625 -15.0625 L -0.0625 -15.171875 L 4.90625 -15.171875 L 10.109375 -3.09375 L 10.21875 -3.09375 L 15.53125 -15.171875 L 20.34375 -15.171875 L 20.34375 -15.0625 Z M 13.515625 0 "/></g></g></g><g fill="rgb(100%, 100%, 100%)" fill-opacity="1"><g transform="translate(80.126371, 227.823587)"><g><path d="M 16.359375 0 L 1.453125 0 L 1.453125 -3.65625 L 6.734375 -3.65625 L 6.734375 -11.53125 L 1.453125 -11.53125 L 1.453125 -15.171875 L 16.359375 -15.171875 L 16.359375 -11.53125 L 11.09375 -11.53125 L 11.09375 -3.65625 L 16.359375 -3.65625 Z M 16.359375 0 "/></g></g></g><g fill="rgb(100%, 100%, 100%)" fill-opacity="1"><g transform="translate(100.163906, 227.823587)"><g><path d="M 13.515625 0 L 6.625 0 L -0.0625 -15.0625 L -0.0625 -15.171875 L 4.90625 -15.171875 L 10.109375 -3.09375 L 10.21875 -3.09375 L 15.53125 -15.171875 L 20.34375 -15.171875 L 20.34375 -15.0625 Z M 13.515625 0 "/></g></g></g><g fill="rgb(100%, 100%, 100%)" fill-opacity="1"><g transform="translate(122.678138, 227.823587)"><g><path d="M 16.359375 0 L 1.453125 0 L 1.453125 -3.65625 L 6.734375 -3.65625 L 6.734375 -11.53125 L 1.453125 -11.53125 L 1.453125 -15.171875 L 16.359375 -15.171875 L 16.359375 -11.53125 L 11.09375 -11.53125 L 11.09375 -3.65625 L 16.359375 -3.65625 Z M 16.359375 0 "/></g></g></g><g fill="rgb(100%, 100%, 100%)" fill-opacity="1"><g transform="translate(142.715671, 227.823587)"><g><path d="M 7.1875 -15.171875 L 13.8125 -15.171875 L 21.109375 -0.109375 L 21.109375 0 L 16.125 0 L 14.75 -2.984375 L 6.1875 -2.984375 L 4.796875 0 L -0.0625 0 L -0.0625 -0.109375 Z M 10.421875 -12.078125 L 7.765625 -6.359375 L 13.1875 -6.359375 L 10.53125 -12.078125 Z M 10.421875 -12.078125 "/></g></g></g><g fill="rgb(100%, 100%, 100%)" fill-opacity="1"><g transform="translate(166.010845, 227.823587)"><g><path d="M 6.84375 0 L 2.453125 0 L 2.453125 -15.171875 L 10.015625 -15.171875 L 16.953125 -3.09375 L 17.0625 -3.09375 L 17.0625 -15.171875 L 21.46875 -15.171875 L 21.46875 0 L 13.90625 0 L 6.96875 -12.078125 L 6.84375 -12.078125 Z M 6.84375 0 "/></g></g></g><g fill="rgb(100%, 100%, 100%)" fill-opacity="1"><g transform="translate(192.162036, 227.823587)"><g/></g></g><g fill="rgb(100%, 100%, 100%)" fill-opacity="1"><g transform="translate(201.311037, 227.823587)"><g><path d="M 7.1875 -15.171875 L 13.8125 -15.171875 L 21.109375 -0.109375 L 21.109375 0 L 16.125 0 L 14.75 -2.984375 L 6.1875 -2.984375 L 4.796875 0 L -0.0625 0 L -0.0625 -0.109375 Z M 10.421875 -12.078125 L 7.765625 -6.359375 L 13.1875 -6.359375 L 10.53125 -12.078125 Z M 10.421875 -12.078125 "/></g></g></g><g fill="rgb(100%, 100%, 100%)" fill-opacity="1"><g transform="translate(224.606217, 227.823587)"><g><path d="M 6.84375 0 L 2.453125 0 L 2.453125 -15.171875 L 10.015625 -15.171875 L 16.953125 -3.09375 L 17.0625 -3.09375 L 17.0625 -15.171875 L 21.46875 -15.171875 L 21.46875 0 L 13.90625 0 L 6.96875 -12.078125 L 6.84375 -12.078125 Z M 6.84375 0 "/></g></g></g><g fill="rgb(100%, 100%, 100%)" fill-opacity="1"><g transform="translate(250.757407, 227.823587)"><g><path d="M 7.96875 0.359375 C 6.90625 0.359375 5.726562 0.320312 4.4375 0.25 C 3.144531 0.175781 1.941406 0.0703125 0.828125 -0.0625 L 0.671875 -4.125 C 2.472656 -3.875 4.21875 -3.675781 5.90625 -3.53125 C 8.09375 -3.332031 9.8125 -3.21875 11.0625 -3.1875 L 11.0625 -11.46875 L 2.671875 -11.46875 L 2.671875 -15.171875 L 15.640625 -15.171875 L 15.640625 -6.15625 C 15.640625 -4.488281 15.382812 -3.179688 14.875 -2.234375 C 14.375 -1.296875 13.570312 -0.628906 12.46875 -0.234375 C 11.375 0.160156 9.875 0.359375 7.96875 0.359375 Z M 7.96875 0.359375 "/></g></g></g><g fill="rgb(100%, 100%, 100%)" fill-opacity="1"><g transform="translate(270.750326, 227.823587)"><g><path d="M 12.09375 0.359375 C 9.414062 0.359375 7.320312 0.109375 5.8125 -0.390625 C 4.300781 -0.890625 3.210938 -1.707031 2.546875 -2.84375 C 1.890625 -3.976562 1.5625 -5.5625 1.5625 -7.59375 C 1.5625 -9.625 1.890625 -11.207031 2.546875 -12.34375 C 3.203125 -13.488281 4.285156 -14.304688 5.796875 -14.796875 C 7.304688 -15.285156 9.40625 -15.53125 12.09375 -15.53125 C 14.78125 -15.53125 16.878906 -15.285156 18.390625 -14.796875 C 19.898438 -14.304688 20.984375 -13.488281 21.640625 -12.34375 C 22.296875 -11.207031 22.625 -9.625 22.625 -7.59375 C 22.625 -5.5625 22.296875 -3.976562 21.640625 -2.84375 C 20.984375 -1.707031 19.898438 -0.890625 18.390625 -0.390625 C 16.878906 0.109375 14.78125 0.359375 12.09375 0.359375 Z M 12.09375 -3.65625 C 13.9375 -3.65625 15.78125 -3.703125 17.625 -3.796875 L 17.625 -11.40625 C 15.570312 -11.476562 13.726562 -11.515625 12.09375 -11.515625 C 10.457031 -11.515625 8.617188 -11.476562 6.578125 -11.40625 L 6.578125 -3.796875 C 8.410156 -3.703125 10.25 -3.65625 12.09375 -3.65625 Z M 12.09375 -3.65625 "/></g></g></g><g fill="rgb(100%, 100%, 100%)" fill-opacity="1"><g transform="translate(297.169262, 227.823587)"><g><path d="M 11.734375 0.359375 C 7.835938 0.359375 4.429688 0.1875 1.515625 -0.15625 L 1.359375 -4.21875 C 4.285156 -3.832031 6.617188 -3.578125 8.359375 -3.453125 C 10.109375 -3.347656 12.164062 -3.257812 14.53125 -3.1875 L 14.53125 -5.640625 L 6.421875 -6.265625 C 4.609375 -6.421875 3.269531 -6.863281 2.40625 -7.59375 C 1.539062 -8.332031 1.109375 -9.410156 1.109375 -10.828125 C 1.109375 -12.441406 1.695312 -13.628906 2.875 -14.390625 C 4.050781 -15.148438 5.90625 -15.53125 8.4375 -15.53125 C 11.082031 -15.53125 14.363281 -15.375 18.28125 -15.0625 L 18.40625 -11 C 15.53125 -11.382812 12.921875 -11.648438 10.578125 -11.796875 C 9.003906 -11.898438 7.445312 -11.960938 5.90625 -11.984375 L 5.90625 -9.59375 L 13.59375 -8.984375 C 15.570312 -8.828125 17.019531 -8.382812 17.9375 -7.65625 C 18.863281 -6.925781 19.328125 -5.820312 19.328125 -4.34375 C 19.328125 -2.757812 18.738281 -1.578125 17.5625 -0.796875 C 16.394531 -0.0234375 14.453125 0.359375 11.734375 0.359375 Z M 11.734375 0.359375 "/></g></g></g><g fill="rgb(100%, 100%, 100%)" fill-opacity="1"><g transform="translate(109.996433, 250.198827)"><g><path d="M 3.125 0 L 0.875 0 L 0.875 -7.265625 L 3.21875 -7.265625 C 3.925781 -7.265625 4.53125 -7.117188 5.03125 -6.828125 C 5.53125 -6.546875 5.914062 -6.132812 6.1875 -5.59375 C 6.457031 -5.050781 6.59375 -4.40625 6.59375 -3.65625 C 6.59375 -2.894531 6.457031 -2.238281 6.1875 -1.6875 C 5.914062 -1.144531 5.519531 -0.726562 5 -0.4375 C 4.488281 -0.144531 3.863281 0 3.125 0 Z M 1.765625 -0.78125 L 3.0625 -0.78125 C 3.96875 -0.78125 4.640625 -1.035156 5.078125 -1.546875 C 5.515625 -2.054688 5.734375 -2.757812 5.734375 -3.65625 C 5.734375 -4.53125 5.519531 -5.21875 5.09375 -5.71875 C 4.664062 -6.226562 4.023438 -6.484375 3.171875 -6.484375 L 1.765625 -6.484375 Z M 1.765625 -0.78125 "/></g></g></g><g fill="rgb(100%, 100%, 100%)" fill-opacity="1"><g transform="translate(119.181257, 250.198827)"><g><path d="M 0.875 0 L 0.875 -7.265625 L 5.265625 -7.265625 L 5.265625 -6.484375 L 1.765625 -6.484375 L 1.765625 -4.03125 L 5.046875 -4.03125 L 5.046875 -3.25 L 1.765625 -3.25 L 1.765625 -0.78125 L 5.328125 -0.78125 L 5.328125 0 Z M 0.875 0 "/></g></g></g><g fill="rgb(100%, 100%, 100%)" fill-opacity="1"><g transform="translate(127.159142, 250.198827)"><g><path d="M 1.171875 -7.265625 L 3.34375 -1.15625 L 3.421875 -1.15625 L 5.578125 -7.265625 L 6.5 -7.265625 L 3.828125 0 L 2.921875 0 L 0.25 -7.265625 Z M 1.171875 -7.265625 "/></g></g></g><g fill="rgb(100%, 100%, 100%)" fill-opacity="1"><g transform="translate(135.917983, 250.198827)"><g/></g></g><g fill="rgb(100%, 100%, 100%)" fill-opacity="1"><g transform="translate(140.729437, 250.198827)"><g><path d="M 0.875 0 L 0.875 -7.265625 L 5.265625 -7.265625 L 5.265625 -6.484375 L 1.765625 -6.484375 L 1.765625 -4.03125 L 5.046875 -4.03125 L 5.046875 -3.25 L 1.765625 -3.25 L 1.765625 -0.78125 L 5.328125 -0.78125 L 5.328125 0 Z M 0.875 0 "/></g></g></g><g fill="rgb(100%, 100%, 100%)" fill-opacity="1"><g transform="translate(148.707321, 250.198827)"><g><path d="M 0.875 -7.265625 L 1.9375 -7.265625 L 4.40625 -1.234375 L 4.484375 -1.234375 L 6.953125 -7.265625 L 8.015625 -7.265625 L 8.015625 0 L 7.1875 0 L 7.1875 -5.53125 L 7.109375 -5.53125 L 4.84375 0 L 4.046875 0 L 1.78125 -5.53125 L 1.703125 -5.53125 L 1.703125 0 L 0.875 0 Z M 0.875 -7.265625 "/></g></g></g><g fill="rgb(100%, 100%, 100%)" fill-opacity="1"><g transform="translate(159.823244, 250.198827)"><g/></g></g><g fill="rgb(100%, 100%, 100%)" fill-opacity="1"><g transform="translate(164.634695, 250.198827)"><g><path d="M 1.171875 0 L 0.25 0 L 2.921875 -7.265625 L 3.828125 -7.265625 L 6.5 0 L 5.578125 0 L 4.84375 -2.0625 L 1.90625 -2.0625 Z M 2.1875 -2.84375 L 4.578125 -2.84375 L 3.40625 -6.125 L 3.359375 -6.125 Z M 2.1875 -2.84375 "/></g></g></g><g fill="rgb(100%, 100%, 100%)" fill-opacity="1"><g transform="translate(173.393539, 250.198827)"><g><path d="M 0.875 0 L 0.875 -7.265625 L 3.34375 -7.265625 C 3.90625 -7.265625 4.367188 -7.160156 4.734375 -6.953125 C 5.097656 -6.753906 5.367188 -6.476562 5.546875 -6.125 C 5.722656 -5.78125 5.8125 -5.394531 5.8125 -4.96875 C 5.8125 -4.539062 5.722656 -4.148438 5.546875 -3.796875 C 5.367188 -3.453125 5.097656 -3.175781 4.734375 -2.96875 C 4.378906 -2.757812 3.921875 -2.65625 3.359375 -2.65625 L 1.765625 -2.65625 L 1.765625 0 Z M 1.765625 -3.4375 L 3.328125 -3.4375 C 3.910156 -3.4375 4.320312 -3.582031 4.5625 -3.875 C 4.8125 -4.164062 4.9375 -4.53125 4.9375 -4.96875 C 4.9375 -5.40625 4.8125 -5.765625 4.5625 -6.046875 C 4.320312 -6.335938 3.90625 -6.484375 3.3125 -6.484375 L 1.765625 -6.484375 Z M 1.765625 -3.4375 "/></g></g></g><g fill="rgb(100%, 100%, 100%)" fill-opacity="1"><g transform="translate(181.740596, 250.198827)"><g><path d="M 0.875 0 L 0.875 -7.265625 L 3.34375 -7.265625 C 3.90625 -7.265625 4.367188 -7.164062 4.734375 -6.96875 C 5.097656 -6.78125 5.367188 -6.519531 5.546875 -6.1875 C 5.722656 -5.851562 5.8125 -5.472656 5.8125 -5.046875 C 5.8125 -4.554688 5.695312 -4.132812 5.46875 -3.78125 C 5.25 -3.425781 4.910156 -3.164062 4.453125 -3 L 6.09375 0 L 5.078125 0 L 3.53125 -2.84375 C 3.476562 -2.84375 3.421875 -2.84375 3.359375 -2.84375 L 1.765625 -2.84375 L 1.765625 0 Z M 1.765625 -3.640625 L 3.328125 -3.640625 C 3.910156 -3.640625 4.320312 -3.765625 4.5625 -4.015625 C 4.8125 -4.265625 4.9375 -4.609375 4.9375 -5.046875 C 4.9375 -5.484375 4.8125 -5.832031 4.5625 -6.09375 C 4.3125 -6.351562 3.894531 -6.484375 3.3125 -6.484375 L 1.765625 -6.484375 Z M 1.765625 -3.640625 "/></g></g></g><g fill="rgb(100%, 100%, 100%)" fill-opacity="1"><g transform="translate(190.130259, 250.198827)"><g><path d="M 0.875 0 L 0.875 -7.265625 L 5.265625 -7.265625 L 5.265625 -6.484375 L 1.765625 -6.484375 L 1.765625 -4.03125 L 5.046875 -4.03125 L 5.046875 -3.25 L 1.765625 -3.25 L 1.765625 -0.78125 L 5.328125 -0.78125 L 5.328125 0 Z M 0.875 0 "/></g></g></g><g fill="rgb(100%, 100%, 100%)" fill-opacity="1"><g transform="translate(198.108141, 250.198827)"><g><path d="M 6.640625 -7.265625 L 6.640625 0 L 5.796875 0 L 1.828125 -5.703125 L 1.765625 -5.703125 L 1.765625 0 L 0.875 0 L 0.875 -7.265625 L 1.734375 -7.265625 L 5.703125 -1.546875 L 5.78125 -1.546875 L 5.78125 -7.265625 Z M 6.640625 -7.265625 "/></g></g></g><g fill="rgb(100%, 100%, 100%)" fill-opacity="1"><g transform="translate(207.633744, 250.198827)"><g><path d="M 3.125 0 L 0.875 0 L 0.875 -7.265625 L 3.21875 -7.265625 C 3.925781 -7.265625 4.53125 -7.117188 5.03125 -6.828125 C 5.53125 -6.546875 5.914062 -6.132812 6.1875 -5.59375 C 6.457031 -5.050781 6.59375 -4.40625 6.59375 -3.65625 C 6.59375 -2.894531 6.457031 -2.238281 6.1875 -1.6875 C 5.914062 -1.144531 5.519531 -0.726562 5 -0.4375 C 4.488281 -0.144531 3.863281 0 3.125 0 Z M 1.765625 -0.78125 L 3.0625 -0.78125 C 3.96875 -0.78125 4.640625 -1.035156 5.078125 -1.546875 C 5.515625 -2.054688 5.734375 -2.757812 5.734375 -3.65625 C 5.734375 -4.53125 5.519531 -5.21875 5.09375 -5.71875 C 4.664062 -6.226562 4.023438 -6.484375 3.171875 -6.484375 L 1.765625 -6.484375 Z M 1.765625 -0.78125 "/></g></g></g><g fill="rgb(100%, 100%, 100%)" fill-opacity="1"><g transform="translate(216.818566, 250.198827)"><g><path d="M 1.765625 -7.265625 L 1.765625 0 L 0.875 0 L 0.875 -7.265625 Z M 1.765625 -7.265625 "/></g></g></g><g fill="rgb(100%, 100%, 100%)" fill-opacity="1"><g transform="translate(221.459625, 250.198827)"><g><path d="M 0.640625 0 L 0.640625 -0.640625 L 4.5625 -6.484375 L 0.59375 -6.484375 L 0.59375 -7.265625 L 5.609375 -7.265625 L 5.609375 -6.640625 L 1.6875 -0.78125 L 5.65625 -0.78125 L 5.65625 0 Z M 0.640625 0 "/></g></g></g><g fill="rgb(100%, 100%, 100%)" fill-opacity="1"><g transform="translate(229.70729, 250.198827)"><g><path d="M 1.171875 0 L 0.25 0 L 2.921875 -7.265625 L 3.828125 -7.265625 L 6.5 0 L 5.578125 0 L 4.84375 -2.0625 L 1.90625 -2.0625 Z M 2.1875 -2.84375 L 4.578125 -2.84375 L 3.40625 -6.125 L 3.359375 -6.125 Z M 2.1875 -2.84375 "/></g></g></g><g fill="rgb(100%, 100%, 100%)" fill-opacity="1"><g transform="translate(238.466128, 250.198827)"><g><path d="M 5.859375 -5 C 5.703125 -5.476562 5.445312 -5.851562 5.09375 -6.125 C 4.738281 -6.40625 4.300781 -6.546875 3.78125 -6.546875 C 3.34375 -6.546875 2.945312 -6.429688 2.59375 -6.203125 C 2.25 -5.984375 1.972656 -5.65625 1.765625 -5.21875 C 1.554688 -4.789062 1.453125 -4.265625 1.453125 -3.640625 C 1.453125 -3.003906 1.554688 -2.46875 1.765625 -2.03125 C 1.972656 -1.601562 2.253906 -1.273438 2.609375 -1.046875 C 2.972656 -0.828125 3.378906 -0.71875 3.828125 -0.71875 C 4.242188 -0.71875 4.609375 -0.804688 4.921875 -0.984375 C 5.234375 -1.160156 5.476562 -1.40625 5.65625 -1.71875 C 5.84375 -2.039062 5.941406 -2.421875 5.953125 -2.859375 L 4.03125 -2.859375 L 4.03125 -3.640625 L 6.796875 -3.640625 L 6.796875 -2.859375 C 6.796875 -2.253906 6.671875 -1.726562 6.421875 -1.28125 C 6.171875 -0.84375 5.820312 -0.503906 5.375 -0.265625 C 4.925781 -0.0234375 4.410156 0.09375 3.828125 0.09375 C 3.191406 0.09375 2.628906 -0.0546875 2.140625 -0.359375 C 1.648438 -0.660156 1.269531 -1.085938 1 -1.640625 C 0.726562 -2.203125 0.59375 -2.867188 0.59375 -3.640625 C 0.59375 -4.398438 0.726562 -5.0625 1 -5.625 C 1.269531 -6.1875 1.644531 -6.617188 2.125 -6.921875 C 2.601562 -7.222656 3.15625 -7.375 3.78125 -7.375 C 4.289062 -7.375 4.753906 -7.269531 5.171875 -7.0625 C 5.585938 -6.863281 5.929688 -6.585938 6.203125 -6.234375 C 6.484375 -5.878906 6.671875 -5.46875 6.765625 -5 Z M 5.859375 -5 "/></g></g></g><g fill="rgb(100%, 100%, 100%)" fill-opacity="1"><g transform="translate(247.892329, 250.198827)"><g><path d="M 0.875 0 L 0.875 -7.265625 L 5.265625 -7.265625 L 5.265625 -6.484375 L 1.765625 -6.484375 L 1.765625 -4.03125 L 5.046875 -4.03125 L 5.046875 -3.25 L 1.765625 -3.25 L 1.765625 -0.78125 L 5.328125 -0.78125 L 5.328125 0 Z M 0.875 0 "/></g></g></g><g fill="rgb(100%, 100%, 100%)" fill-opacity="1"><g transform="translate(255.87021, 250.198827)"><g><path d="M 0.875 -7.265625 L 1.9375 -7.265625 L 4.40625 -1.234375 L 4.484375 -1.234375 L 6.953125 -7.265625 L 8.015625 -7.265625 L 8.015625 0 L 7.1875 0 L 7.1875 -5.53125 L 7.109375 -5.53125 L 4.84375 0 L 4.046875 0 L 1.78125 -5.53125 L 1.703125 -5.53125 L 1.703125 0 L 0.875 0 Z M 0.875 -7.265625 "/></g></g></g><g fill="rgb(100%, 100%, 100%)" fill-opacity="1"><g transform="translate(188.488615, 263.698826)"><g/></g></g></svg>